<svg width="47" height="40" viewBox="0 0 47 40" fill="none" xmlns="http://www.w3.org/2000/svg">
<path d="M10.094 1.77311C17.1863 5.64164 21.8608 16.6025 21.8608 16.6025C21.9094 17.3763 23.4818 21.3043 21.8608 27.4021C19.9634 34.5393 17.6698 37.2883 16.5414 37.7181C14.7361 40.684 12.243 40.136 11.2221 39.4912C9.41683 39.8781 7.99837 38.2554 7.5148 37.3957C5.45158 37.1379 5.04324 34.4944 5.09697 33.2048C4.06536 32.4311 3.80746 30.196 3.80746 29.1751C2.77585 24.0171 6.6014 20.471 8.64312 19.3426C3.48508 19.8584 2.41049 16.2263 2.51795 14.3458C1.35739 13.5721 1.38972 11.3369 1.55096 10.3161C-0.125407 7.47917 -0.114661 4.62077 0.100257 3.54619C0.476365 1.34328 3.00166 -2.09541 10.094 1.77311Z" fill="#E9E9E9"/>
<path d="M36.6152 1.74968C29.5229 5.6182 24.8484 16.579 24.8484 16.579C24.7998 17.3529 23.2274 21.2809 24.8484 27.3786C26.7458 34.5159 29.0394 37.2649 30.1678 37.6947C31.9731 40.6606 34.4662 40.1125 35.487 39.4678C37.2924 39.8546 38.7108 38.232 39.1944 37.3723C41.2576 37.1144 41.666 34.4709 41.6122 33.1814C42.6438 32.4077 42.9017 30.1726 42.9017 29.1517C43.9333 23.9937 40.1078 20.4475 38.0661 19.3192C43.2241 19.835 44.2987 16.2029 44.1912 14.3224C45.3518 13.5487 45.3195 11.3135 45.1582 10.2926C46.8346 7.45573 46.8239 4.59733 46.6089 3.52275C46.2328 1.31984 43.7075 -2.11885 36.6152 1.74968Z" fill="#E9E9E9"/>
</svg>
